<svg width="9" height="14" viewBox="0 0 9 14" fill="none" xmlns="http://www.w3.org/2000/svg">
<path d="M8.19797 6.95606C8.19807 6.83579 8.17386 6.71674 8.12677 6.60607C8.07968 6.4954 8.0107 6.39539 7.92397 6.31206L2.55097 0.939063C2.46741 0.84332 2.36452 0.766359 2.24907 0.713244C2.13363 0.660129 2.00824 0.632065 1.88117 0.630897C1.75409 0.62973 1.62821 0.655487 1.51181 0.706472C1.39541 0.757458 1.29112 0.832517 1.20582 0.926708C1.12051 1.0209 1.05612 1.13209 1.01688 1.25296C0.977641 1.37383 0.964443 1.50164 0.978155 1.62797C0.991868 1.75431 1.03218 1.87631 1.09644 1.98595C1.1607 2.09558 1.24744 2.19037 1.35097 2.26406L6.03397 6.95506L1.28497 11.7091C1.14464 11.8819 1.07333 12.1006 1.08483 12.3229C1.09633 12.5452 1.18982 12.7554 1.34723 12.9128C1.50465 13.0702 1.71482 13.1637 1.93714 13.1752C2.15946 13.1867 2.37815 13.1154 2.55097 12.9751V12.9751L7.92397 7.60206C8.0107 7.51874 8.07968 7.41873 8.12677 7.30806C8.17386 7.19739 8.19807 7.07833 8.19797 6.95806V6.95606Z" fill="white"/>
</svg>
