<svg xmlns="http://www.w3.org/2000/svg" width="18" height="18" viewBox="0 0 18 18"><defs><style>.a{fill:#02c4b7;}</style></defs><g transform="translate(0)"><path class="a" d="M16.281,14.291a9,9,0,1,0-14.562,0,9.005,9.005,0,0,1,14.562,0ZM5.836,5.308a3.164,3.164,0,0,1,6.328,0V6.363a3.164,3.164,0,0,1-6.328,0Zm0,0"/><path class="a" d="M198.109,96.269a2.112,2.112,0,0,0,2.109-2.109V93.105a2.109,2.109,0,0,0-4.219,0V94.16A2.112,2.112,0,0,0,198.109,96.269Zm0,0" transform="translate(-189.109 -87.797)"/><path class="a" d="M68.758,334.59a9,9,0,0,0,13.168,0A7.95,7.95,0,0,0,68.758,334.59Zm0,0" transform="translate(-66.34 -319.454)"/></g></svg>