<svg width="16" height="21" viewBox="0 0 16 21" fill="none" xmlns="http://www.w3.org/2000/svg">
<g filter="url(#filter0_d)">
<path d="M11.3474 6.55407C11.3476 6.44742 11.3261 6.34185 11.2843 6.24372C11.2426 6.14558 11.1814 6.05692 11.1044 5.98308V5.98308L6.34543 1.22408C6.26909 1.14995 6.17862 1.09195 6.07939 1.05352C5.98017 1.01509 5.87423 0.997028 5.76788 1.0004C5.66153 1.00377 5.55695 1.02851 5.46036 1.07314C5.36377 1.11777 5.27715 1.18139 5.20566 1.26019C5.13417 1.339 5.07927 1.43139 5.04423 1.53186C5.00919 1.63233 4.99473 1.73882 5.00171 1.84499C5.00868 1.95116 5.03695 2.05485 5.08484 2.14987C5.13272 2.24489 5.19924 2.3293 5.28043 2.39808L9.43543 6.55307L5.22542 10.7631C5.08381 10.9131 5.00627 11.1125 5.00927 11.3188C5.01226 11.5251 5.09554 11.7222 5.24144 11.8681C5.38735 12.014 5.58437 12.0972 5.79068 12.1002C5.997 12.1032 6.19636 12.0257 6.34643 11.8841V11.8841L11.1024 7.12707C11.1794 7.05323 11.2406 6.96457 11.2823 6.86643C11.3241 6.7683 11.3456 6.66273 11.3454 6.55608L11.3474 6.55407Z" fill="#FF6E00"/>
<path d="M11.3474 6.55407C11.3476 6.44742 11.3261 6.34185 11.2843 6.24372C11.2426 6.14558 11.1814 6.05692 11.1044 5.98308V5.98308L6.34543 1.22408C6.26909 1.14995 6.17862 1.09195 6.07939 1.05352C5.98017 1.01509 5.87423 0.997028 5.76788 1.0004C5.66153 1.00377 5.55695 1.02851 5.46036 1.07314C5.36377 1.11777 5.27715 1.18139 5.20566 1.26019C5.13417 1.339 5.07927 1.43139 5.04423 1.53186C5.00919 1.63233 4.99473 1.73882 5.00171 1.84499C5.00868 1.95116 5.03695 2.05485 5.08484 2.14987C5.13272 2.24489 5.19924 2.3293 5.28043 2.39808L9.43543 6.55307L5.22542 10.7631C5.08381 10.9131 5.00627 11.1125 5.00927 11.3188C5.01226 11.5251 5.09554 11.7222 5.24144 11.8681C5.38735 12.014 5.58437 12.0972 5.79068 12.1002C5.997 12.1032 6.19636 12.0257 6.34643 11.8841V11.8841L11.1024 7.12707C11.1794 7.05323 11.2406 6.96457 11.2823 6.86643C11.3241 6.7683 11.3456 6.66273 11.3454 6.55608L11.3474 6.55407Z" stroke="#FF6E00"/>
</g>
<defs>
<filter id="filter0_d" x="0.5" y="0.5" width="15.3474" height="20.1003" filterUnits="userSpaceOnUse" color-interpolation-filters="sRGB">
<feFlood flood-opacity="0" result="BackgroundImageFix"/>
<feColorMatrix in="SourceAlpha" type="matrix" values="0 0 0 0 0 0 0 0 0 0 0 0 0 0 0 0 0 0 127 0" result="hardAlpha"/>
<feOffset dy="4"/>
<feGaussianBlur stdDeviation="2"/>
<feComposite in2="hardAlpha" operator="out"/>
<feColorMatrix type="matrix" values="0 0 0 0 0 0 0 0 0 0 0 0 0 0 0 0 0 0 0.25 0"/>
<feBlend mode="normal" in2="BackgroundImageFix" result="effect1_dropShadow"/>
<feBlend mode="normal" in="SourceGraphic" in2="effect1_dropShadow" result="shape"/>
</filter>
</defs>
</svg>
