<svg width="8" height="14" viewBox="0 0 8 14" fill="none" xmlns="http://www.w3.org/2000/svg">
<path d="M0.813935 6.96517C0.81383 6.84489 0.838049 6.72584 0.885136 6.61517C0.932223 6.5045 1.00121 6.40449 1.08793 6.32117V6.32117L6.45894 0.950166C6.54461 0.864146 6.6469 0.796459 6.75956 0.75122C6.87223 0.705981 6.99292 0.684138 7.1143 0.68702C7.23567 0.689902 7.35519 0.717448 7.46558 0.767983C7.57597 0.818518 7.67493 0.890984 7.75643 0.980973C7.83793 1.07096 7.90027 1.17659 7.93965 1.29143C7.97904 1.40628 7.99464 1.52793 7.98552 1.649C7.9764 1.77007 7.94275 1.88801 7.8866 1.99566C7.83046 2.1033 7.753 2.1984 7.65893 2.27517L2.96894 6.96517L7.71993 11.7162C7.87845 11.8858 7.96487 12.1103 7.96095 12.3424C7.95703 12.5745 7.86308 12.796 7.69894 12.9602C7.53479 13.1243 7.31329 13.2183 7.08118 13.2222C6.84908 13.2261 6.62453 13.1397 6.45494 12.9812V12.9812L1.08793 7.61117C1.00121 7.52784 0.932223 7.42783 0.885136 7.31716C0.838049 7.20649 0.81383 7.08744 0.813935 6.96717V6.96517Z" fill="#B7B7B7"/>
</svg>
