<svg xmlns="http://www.w3.org/2000/svg" width="18.338" height="13.968" viewBox="0 0 18.338 13.968"><defs><style>.a{fill:#02c4b7;}</style></defs><g transform="translate(0 -61)"><g transform="translate(0.921 61)"><path class="a" d="M41.526,61H26.412a1.593,1.593,0,0,0-.691.162l8.212,8.212L35.773,67.6h0l6.443-6.443A1.593,1.593,0,0,0,41.526,61Z" transform="translate(-25.721 -61)"/></g><g transform="translate(12.114 61.921)"><path class="a" d="M344.276,86.728l-6.063,6.063,6.063,6.063a1.593,1.593,0,0,0,.162-.69V87.418A1.593,1.593,0,0,0,344.276,86.728Z" transform="translate(-338.213 -86.728)"/></g><g transform="translate(0 61.921)"><path class="a" d="M.162,86.721A1.593,1.593,0,0,0,0,87.412V98.156a1.593,1.593,0,0,0,.161.69l6.063-6.063Z" transform="translate(0 -86.721)"/></g><g transform="translate(0.921 68.744)"><path class="a" d="M36.147,277.211l-1.841,1.769a.537.537,0,0,1-.76,0l-1.769-1.769-6.063,6.063a1.593,1.593,0,0,0,.691.162H41.519a1.593,1.593,0,0,0,.691-.162Z" transform="translate(-25.714 -277.211)"/></g></g></svg>