<svg xmlns="http://www.w3.org/2000/svg" width="18" height="18.085" viewBox="0 0 18 18.085"><defs><style>.a{fill:#02c4b7;}</style></defs><g transform="translate(-1.205)"><path class="a" d="M376.287,93.426a.736.736,0,1,0,.521.215A.734.734,0,0,0,376.287,93.426Z" transform="translate(-361.119 -90.125)"/><path class="a" d="M17.713,1.492A5.095,5.095,0,0,0,9.048,4.517a5.123,5.123,0,0,0,.636,3.1L1.205,16.1l1.9,1.9.993-.993,1.078,1.078,1.777-1.777L5.875,15.23,7.206,13.9l1.078,1.078L10.06,13.2,8.982,12.123l2.6-2.6a5.124,5.124,0,0,0,3.1.636,5.095,5.095,0,0,0,4.517-5.062,5.062,5.062,0,0,0-1.492-3.6ZM16.439,5.308a1.8,1.8,0,1,1,0-2.542A1.792,1.792,0,0,1,16.439,5.308Z"/></g></svg>