<svg xmlns="http://www.w3.org/2000/svg" width="11.229" height="10.775" viewBox="0 0 11.229 10.775"><defs><style>.a{fill:#ffb300;}</style></defs><g transform="translate(0 -10.34)"><path class="a" d="M11.178,14.381a.972.972,0,0,0-.938-.681H7.435l-.883-2.683a.972.972,0,0,0-.937-.678h0a.972.972,0,0,0-.936.686L3.817,13.7H.989a.987.987,0,0,0-.578,1.787L2.7,17.141l-.881,2.675a.972.972,0,0,0,.355,1.105.972.972,0,0,0,1.161,0l2.292-1.657,2.265,1.654a.987.987,0,0,0,1.522-1.1l-.86-2.682,2.269-1.657a.972.972,0,0,0,.356-1.1ZM5.4,16.131l2.377.759L4.264,18.209c.068.211,4.195,2.312,3.518-3.256L5.4,16.131h0c-.18.13.045-.84,0-.873s-1.009.68-.939.469l-.99,1.163h2.3c-.18-.13,3.055,3.5.778-2.532.068-.211-1.216.386-1.147.6l-1.93,4.314,6.766-4.909c.221,0-4.853,1.719-4.836,1.772S5.583,16,5.4,16.131Z" transform="translate(0)"/></g></svg>